<?xml version="1.0" encoding="UTF-8" standalone="no"?><!DOCTYPE svg PUBLIC "-//W3C//DTD SVG 1.1//EN" "http://www.w3.org/Graphics/SVG/1.1/DTD/svg11.dtd"><svg width="100%" height="100%" viewBox="0 0 1200 1200" version="1.1" xmlns="http://www.w3.org/2000/svg" xmlns:xlink="http://www.w3.org/1999/xlink" xml:space="preserve" xmlns:serif="http://www.serif.com/" style="fill-rule:evenodd;clip-rule:evenodd;stroke-linecap:round;stroke-linejoin:round;stroke-miterlimit:1.5;"><g><path d="M640.833,483.333c-124.583,32.5 -199.166,72.917 -199.166,107.084c-0,41.25 64.166,78.333 192.916,111.25c85,22.083 77.917,21.25 77.917,6.666c0,-10 -2.083,-12.916 -11.25,-15c-122.083,-26.25 -222.917,-67.5 -232.5,-95c-3.75,-10.833 -2.5,-12.916 10.417,-24.166c32.5,-27.084 105.416,-53.334 222.083,-80c9.167,-2.084 11.25,-5 11.25,-15c0,-7.5 -2.083,-12.5 -5,-12.084c-2.917,0 -32.917,7.5 -66.667,16.25Z" style="fill-rule:nonzero;"/><circle cx="600" cy="600" r="327.617" style="fill-opacity:0;stroke:#2c2d52;stroke-width:20.83px;"/></g></svg>