<svg xmlns="http://www.w3.org/2000/svg" viewBox="0 0 78.49 33.51"><defs><style>.cls-1{fill:#231f20;}.cls-2{fill:none;stroke:#00aeef;stroke-miterlimit:10;}</style></defs><g id="Layer_2" data-name="Layer 2"><g id="Layer_1-2" data-name="Layer 1"><path class="cls-1" d="M10.9,27.94C4.79,27.94,0,23.9,0,17.22S4.85,6.49,10.9,6.49c4.28,0,6.6,1.78,7.14,2.35l-1.5,4a8,8,0,0,0-5.37-2.17c-3.52,0-6.23,2.35-6.23,6.42a6,6,0,0,0,6.23,6.38,7.65,7.65,0,0,0,5.61-2.2l1.62,3.8C17.35,26.19,15.15,27.94,10.9,27.94Z"/><path class="cls-1" d="M61.83,27.58H60.42L69,6.73h.76l8.7,20.85H77L74.3,21.07H64.51ZM65,19.87h8.82L69.42,9.14Z"/><rect class="cls-2" x="24.15" y="0.5" width="30.87" height="32.51" rx="5.41"/><path class="cls-1" d="M44.68,16.26l.93.21a20.07,20.07,0,0,1-2.14,3.61c.91,1.06,1.82,2.13,2.74,3.17v.1H45l-2.15-2.53c-1.23,1.43-2.65,2.79-5.12,2.79a3.75,3.75,0,0,1-4-3.93c0-2.47,1.93-3.63,4.08-4.85-.75-1-1.79-1.93-1.79-3.52a2.88,2.88,0,0,1,3.12-2.83,2.75,2.75,0,0,1,3,2.79c0,1.57-1.38,2.8-3,3.76,1.24,1.46,2.51,3,3.78,4.41A13.39,13.39,0,0,0,44.68,16.26Zm-2.34,3.93-4-4.72-.77.45c-1.29.76-2.89,1.8-2.89,3.67A3,3,0,0,0,38,22.76C39.52,22.76,41.07,21.65,42.34,20.19Zm-3.78-5.82.28-.17c.87-.51,2.35-1.36,2.35-2.91a1.87,1.87,0,0,0-2.06-2A2,2,0,0,0,37,11.42C37,12.71,38,13.75,38.56,14.37Z"/></g></g></svg>