<?xml version="1.0" encoding="UTF-8" standalone="no"?>
<!DOCTYPE svg PUBLIC "-//W3C//DTD SVG 1.1//EN" "http://www.w3.org/Graphics/SVG/1.1/DTD/svg11.dtd">
<svg width="100%" height="100%" viewBox="0 0 419 239" version="1.1" xmlns="http://www.w3.org/2000/svg" xmlns:xlink="http://www.w3.org/1999/xlink" xml:space="preserve" xmlns:serif="http://www.serif.com/" style="fill-rule:evenodd;clip-rule:evenodd;stroke-linecap:round;stroke-linejoin:round;stroke-miterlimit:1.5;">
    <g transform="matrix(1,0,0,1,-100.363,-98.4768)">
        <g transform="matrix(0.0962561,0.697999,-0.697999,0.0962561,754.286,-133.37)">
            <path d="M228.862,774.216C229.076,769.009 229.014,763.019 229.081,757.039C229.189,747.565 230.238,738.264 231.682,728.915C233.411,717.716 235.217,706.527 236.922,695.322C238.149,687.26 240.079,679.319 241.885,671.362C243.379,664.773 244.678,658.138 246.096,651.531C247.086,646.915 248.812,642.572 250.984,638.385C254.77,631.085 257.924,623.512 260.923,615.854C264.11,607.717 266.987,599.462 270.471,591.43C273.848,583.649 277.864,576.208 281.692,568.662C284.754,562.628 287.713,556.533 290.968,550.605C294.754,543.71 298.641,536.858 302.804,530.189C307.232,523.094 311.954,516.178 316.701,509.289C320.121,504.326 323.992,499.668 327.302,494.635C332.298,487.043 338.201,480.217 344.356,473.599C350.577,466.905 356.439,459.869 363.058,453.553C367.488,449.323 372.201,445.382 376.508,441.034C380.658,436.846 385.184,433.071 389.267,428.8C392.907,424.993 397.029,421.603 401.373,418.545C408.724,413.373 416.024,408.124 423.427,403.027C426.395,400.984 429.591,399.276 432.657,397.371C433.689,396.73 434.595,396.715 435.443,397.601C442.702,405.178 450.685,412.012 457.764,419.791C463.683,426.295 470.102,432.343 476.328,438.566C485.526,447.76 494.68,457.016 502.949,467.049C509.46,474.947 515.129,483.491 520.363,492.328C523.723,498.005 526.296,504.013 528.721,510.074C531.556,517.157 534.299,524.292 536.548,531.605C539.087,539.872 541.378,548.203 543.694,556.533C546.289,565.872 548.421,575.304 550.688,584.714C552.218,591.08 553.532,597.5 555.162,603.826C556.483,608.951 557.728,614.109 558.983,619.247C560.167,624.091 561.454,628.936 562.283,633.884C562.69,636.311 563.484,638.702 564.042,641.135C566.034,649.842 566.918,658.689 568.055,667.521C568.983,674.715 569.358,681.914 569.597,689.133C569.861,697.121 568.682,705.041 568.189,712.994C567.624,722.118 566.455,731.19 566.449,740.365C566.442,750.331 566.104,760.304 565.578,770.256C565.347,774.614 565.557,778.986 565.127,783.311C564.722,787.396 563.927,791.46 563.033,795.472C561.289,803.291 559.12,810.989 556.381,818.537C553.777,825.711 551.248,832.906 548.354,839.976C545.656,846.566 543.388,853.332 540.666,859.912C538.2,865.871 535.349,871.67 532.72,877.561C530.89,881.66 528.579,885.491 526.437,889.419C525.217,891.655 523.521,893.476 522.01,895.447C516.985,901.999 510.725,907.183 503.758,911.584C497.601,915.472 491.108,918.712 484.669,922.089C478.609,925.269 472.436,928.206 466.256,931.106C460.098,933.999 453.468,935.532 446.587,935.585C441.557,935.624 436.527,935.649 431.496,935.596C429.502,935.575 428.702,936.353 428.801,938.38C428.961,941.592 429.894,944.586 430.961,947.572C433.193,953.813 435.784,959.906 438.749,965.825C442.187,972.691 446.083,979.24 452.31,984.105C454.733,985.999 457.514,985.971 460.237,986.394C463.197,986.855 464.456,989.625 462.74,992.152C461.68,993.714 460.092,994.416 458.323,994.876C453.961,996.012 449.459,996.293 445.043,997.096C435.27,998.873 428.273,994.189 422.058,987.306C414.073,978.461 410.186,967.475 405.536,956.863C402.811,950.647 401.141,944.22 401.25,937.382C401.325,932.687 401.091,932.313 396.362,931.605C391.616,930.891 387.071,929.329 382.346,928.546C381.096,928.341 355.595,920.855 351.506,919.498C347.262,918.084 336.204,913.897 332.418,911.788C328.091,909.38 323.825,906.72 319.79,903.723C314.964,900.135 309.724,897.109 304.728,893.743C298.045,889.242 291.15,885.042 284.703,880.192C275.726,873.436 267.707,865.693 260.301,857.215C255.356,851.552 251.368,845.291 247.453,838.991C243.268,832.257 238.97,825.535 235.728,818.262C233.268,812.747 231.775,806.926 230.442,801.022C228.491,792.388 229.002,783.689 228.862,774.216" style="fill:#5cd700;fill-rule:nonzero;"/>
        </g>
        <g transform="matrix(0.0807212,0.459884,-0.791889,0.138996,1448.15,405.318)">
            <path d="M-784.653,1133.03C-789.516,1135.78 -793.829,1145.1 -796.692,1149.69C-803.635,1160.82 -810.57,1172.57 -815.15,1185.01C-816.286,1188.09 -816.12,1191.91 -817.522,1194.88C-824.491,1209.6 -826.613,1221.27 -831.27,1236.69C-835.085,1249.33 -837.435,1264.39 -840.302,1277.29C-842.559,1287.44 -843.218,1300.08 -843.774,1310.38C-843.982,1314.24 -845.464,1320.26 -845.679,1324.08C-845.843,1327.01 -845.364,1334.23 -845.449,1337.17C-845.926,1353.66 -846.305,1363.64 -845.971,1380.07C-845.655,1395.6 -847.182,1415.28 -846.076,1428.18C-845.498,1434.93 -844.86,1442.79 -843.439,1449.25C-842.156,1455.09 -840.003,1465.04 -838.015,1470.67C-834.534,1480.52 -832.767,1487 -829.55,1497.01C-826.621,1506.12 -822.878,1514.37 -821.439,1522.76C-820.436,1528.61 -817.994,1537.89 -817.317,1539.14C-815.684,1542.16 -813.616,1546.39 -811.528,1548.51" style="fill:none;stroke:#50ff00;stroke-width:6.34px;"/>
        </g>
        <g transform="matrix(0.358556,0,0,0.358556,448.416,-47.6623)">
            <g transform="matrix(74.2042,0,0,74.2042,34.2462,547.721)">
                <path d="M0.598,-0.717L0.598,-0.632L0.356,-0.632L0.356,-0L0.258,-0L0.258,-0.632L0.016,-0.632L0.016,-0.717L0.598,-0.717Z" style="fill:#5cd700;fill-rule:nonzero;"/>
            </g>
            <g transform="matrix(74.2042,0,0,74.2042,79.5731,547.721)">
                <path d="M0.074,-0.717L0.213,-0.717L0.419,-0.111L0.624,-0.717L0.761,-0.717L0.761,-0L0.669,-0L0.669,-0.423C0.669,-0.438 0.669,-0.462 0.67,-0.496C0.671,-0.53 0.671,-0.566 0.671,-0.605L0.466,-0L0.37,-0L0.164,-0.605L0.164,-0.583C0.164,-0.565 0.164,-0.539 0.165,-0.503C0.166,-0.467 0.167,-0.44 0.167,-0.423L0.167,-0L0.074,-0L0.074,-0.717Z" style="fill:#5cd700;fill-rule:nonzero;"/>
            </g>
        </g>
        <g transform="matrix(0.643381,-0.108522,0.108522,0.643381,-315.264,-1481.51)">
            <g transform="matrix(117.052,0,0,117.052,316.033,2690.84)">
                <path d="M0.025,-0.441C0.025,-0.431 0.034,-0.421 0.036,-0.41C0.039,-0.385 0.042,-0.323 0.046,-0.287C0.049,-0.256 0.053,-0.226 0.056,-0.195C0.06,-0.164 0.063,-0.123 0.066,-0.103C0.068,-0.092 0.073,-0.08 0.077,-0.072C0.079,-0.065 0.083,-0.058 0.087,-0.051C0.09,-0.044 0.094,-0.038 0.097,-0.031C0.101,-0.024 0.102,-0.015 0.107,-0.01C0.113,-0.005 0.121,-0.003 0.128,-0C0.135,0.003 0.142,0.007 0.148,0.01C0.155,0.014 0.161,0.019 0.169,0.021C0.181,0.022 0.208,0.022 0.22,0.021C0.228,0.019 0.256,0.003 0.261,-0C0.265,-0.003 0.295,-0.026 0.302,-0.031C0.306,-0.034 0.328,-0.056 0.333,-0.062C0.336,-0.065 0.349,-0.086 0.354,-0.092C0.359,-0.099 0.373,-0.12 0.374,-0.123C0.376,-0.128 0.381,-0.137 0.384,-0.144C0.388,-0.15 0.391,-0.157 0.395,-0.164C0.398,-0.171 0.4,-0.183 0.405,-0.185C0.41,-0.186 0.422,-0.181 0.425,-0.174C0.43,-0.162 0.432,-0.126 0.436,-0.113C0.437,-0.105 0.442,-0.099 0.446,-0.092C0.449,-0.085 0.451,-0.077 0.456,-0.072C0.461,-0.067 0.471,-0.067 0.477,-0.062C0.482,-0.056 0.483,-0.046 0.487,-0.041C0.489,-0.037 0.493,-0.033 0.497,-0.031C0.513,-0.023 0.553,-0.015 0.562,-0.019C0.602,-0.034 0.595,-0.029 0.61,-0.035C0.617,-0.038 0.63,-0.046 0.641,-0.051C0.647,-0.055 0.668,-0.068 0.671,-0.072C0.677,-0.077 0.687,-0.087 0.692,-0.092C0.695,-0.096 0.699,-0.099 0.702,-0.103C0.706,-0.108 0.719,-0.128 0.724,-0.136C0.729,-0.145 0.74,-0.164 0.743,-0.174C0.747,-0.185 0.761,-0.218 0.764,-0.226C0.767,-0.234 0.771,-0.246 0.774,-0.256C0.777,-0.267 0.781,-0.277 0.784,-0.287C0.788,-0.299 0.791,-0.314 0.794,-0.328C0.798,-0.344 0.803,-0.364 0.805,-0.379C0.806,-0.393 0.806,-0.407 0.805,-0.42C0.803,-0.436 0.8,-0.463 0.794,-0.472C0.791,-0.478 0.781,-0.473 0.774,-0.472C0.765,-0.47 0.752,-0.467 0.743,-0.461C0.735,-0.456 0.728,-0.446 0.723,-0.441C0.719,-0.438 0.714,-0.435 0.712,-0.431C0.709,-0.422 0.706,-0.403 0.702,-0.39C0.699,-0.376 0.695,-0.361 0.692,-0.349C0.689,-0.338 0.685,-0.328 0.682,-0.318C0.678,-0.306 0.675,-0.287 0.671,-0.277C0.669,-0.27 0.664,-0.263 0.661,-0.256C0.658,-0.248 0.654,-0.234 0.651,-0.226C0.648,-0.218 0.644,-0.212 0.641,-0.205C0.637,-0.198 0.624,-0.178 0.62,-0.174C0.615,-0.169 0.605,-0.159 0.6,-0.154C0.596,-0.15 0.593,-0.146 0.589,-0.144C0.584,-0.14 0.576,-0.135 0.569,-0.133C0.562,-0.132 0.554,-0.129 0.548,-0.133C0.542,-0.138 0.531,-0.156 0.528,-0.164C0.525,-0.17 0.519,-0.204 0.517,-0.211C0.514,-0.224 0.508,-0.253 0.507,-0.256C0.506,-0.267 0.5,-0.29 0.497,-0.308C0.494,-0.326 0.49,-0.349 0.487,-0.369C0.483,-0.391 0.48,-0.417 0.477,-0.441C0.473,-0.465 0.47,-0.497 0.466,-0.513C0.465,-0.52 0.463,-0.53 0.456,-0.533C0.448,-0.537 0.425,-0.535 0.415,-0.533C0.408,-0.532 0.4,-0.528 0.395,-0.523C0.389,-0.518 0.387,-0.51 0.384,-0.502C0.381,-0.494 0.376,-0.48 0.374,-0.472C0.373,-0.465 0.374,-0.456 0.374,-0.451L0.374,-0.441C0.374,-0.438 0.375,-0.434 0.374,-0.431C0.371,-0.415 0.357,-0.364 0.354,-0.349C0.353,-0.345 0.338,-0.301 0.333,-0.287C0.329,-0.277 0.326,-0.267 0.323,-0.256C0.319,-0.246 0.316,-0.234 0.313,-0.226C0.31,-0.218 0.306,-0.212 0.302,-0.205C0.299,-0.198 0.295,-0.191 0.292,-0.185C0.289,-0.178 0.274,-0.158 0.271,-0.154C0.266,-0.147 0.256,-0.13 0.251,-0.123C0.248,-0.119 0.244,-0.116 0.241,-0.113C0.236,-0.108 0.227,-0.097 0.22,-0.092C0.214,-0.088 0.205,-0.084 0.2,-0.082C0.196,-0.081 0.192,-0.08 0.189,-0.082C0.184,-0.087 0.174,-0.103 0.169,-0.113C0.164,-0.122 0.161,-0.133 0.159,-0.144C0.155,-0.157 0.152,-0.178 0.148,-0.195C0.145,-0.212 0.141,-0.229 0.138,-0.246C0.135,-0.267 0.131,-0.297 0.128,-0.318C0.125,-0.335 0.121,-0.352 0.118,-0.369C0.114,-0.386 0.111,-0.407 0.107,-0.42C0.105,-0.431 0.101,-0.441 0.097,-0.451C0.094,-0.461 0.09,-0.475 0.087,-0.482C0.085,-0.486 0.081,-0.491 0.077,-0.492C0.072,-0.494 0.062,-0.495 0.056,-0.492C0.049,-0.489 0.041,-0.48 0.036,-0.472C0.031,-0.463 0.025,-0.451 0.025,-0.441Z" style="fill:#fff;fill-rule:nonzero;"/>
            </g>
            <g transform="matrix(117.052,0,0,117.052,413.253,2690.84)">
                <path d="M0.025,-0.103C0.025,-0.085 0.022,-0.06 0.036,-0.051C0.049,-0.043 0.094,-0.05 0.107,-0.051C0.112,-0.052 0.116,-0.058 0.118,-0.062C0.119,-0.065 0.12,-0.068 0.121,-0.071C0.123,-0.074 0.127,-0.077 0.128,-0.082C0.131,-0.094 0.135,-0.126 0.138,-0.144C0.141,-0.157 0.145,-0.171 0.148,-0.185C0.152,-0.198 0.155,-0.212 0.159,-0.226C0.162,-0.239 0.166,-0.255 0.169,-0.267C0.172,-0.277 0.176,-0.289 0.179,-0.297C0.182,-0.304 0.186,-0.311 0.189,-0.318C0.193,-0.325 0.195,-0.332 0.2,-0.338C0.205,-0.345 0.215,-0.354 0.22,-0.359C0.224,-0.362 0.236,-0.377 0.241,-0.379C0.269,-0.393 0.272,-0.395 0.31,-0.398C0.32,-0.399 0.355,-0.391 0.364,-0.39C0.371,-0.388 0.379,-0.385 0.384,-0.379C0.389,-0.374 0.392,-0.369 0.397,-0.364C0.402,-0.359 0.413,-0.356 0.415,-0.349C0.42,-0.332 0.423,-0.287 0.425,-0.256C0.426,-0.242 0.429,-0.175 0.436,-0.113C0.436,-0.109 0.437,-0.08 0.446,-0.072C0.454,-0.063 0.478,-0.063 0.487,-0.062C0.49,-0.061 0.494,-0.061 0.497,-0.062C0.504,-0.063 0.526,-0.058 0.528,-0.072C0.529,-0.08 0.528,-0.092 0.528,-0.103C0.528,-0.113 0.528,-0.123 0.528,-0.133C0.526,-0.171 0.521,-0.291 0.518,-0.328C0.517,-0.339 0.511,-0.349 0.507,-0.359C0.504,-0.369 0.5,-0.381 0.497,-0.39C0.494,-0.397 0.492,-0.404 0.487,-0.41C0.48,-0.418 0.46,-0.447 0.456,-0.451C0.451,-0.456 0.43,-0.47 0.425,-0.472C0.418,-0.475 0.379,-0.497 0.318,-0.499C0.27,-0.501 0.273,-0.495 0.243,-0.486C0.233,-0.482 0.219,-0.475 0.21,-0.472C0.203,-0.469 0.196,-0.466 0.189,-0.461C0.182,-0.457 0.175,-0.452 0.168,-0.447C0.162,-0.442 0.154,-0.432 0.148,-0.431C0.145,-0.43 0.14,-0.428 0.138,-0.431C0.135,-0.438 0.129,-0.458 0.128,-0.472C0.126,-0.501 0.128,-0.576 0.128,-0.605C0.128,-0.619 0.126,-0.627 0.126,-0.638C0.126,-0.644 0.126,-0.661 0.128,-0.667C0.129,-0.671 0.136,-0.688 0.138,-0.692C0.145,-0.712 0.135,-0.771 0.13,-0.795C0.129,-0.798 0.126,-0.821 0.107,-0.82C0.102,-0.82 0.092,-0.816 0.087,-0.81C0.08,-0.802 0.072,-0.783 0.066,-0.769C0.061,-0.756 0.059,-0.742 0.056,-0.728C0.053,-0.711 0.048,-0.687 0.046,-0.667C0.042,-0.637 0.037,-0.591 0.036,-0.554C0.032,-0.46 0.025,-0.186 0.025,-0.103Z" style="fill:#fff;fill-rule:nonzero;"/>
            </g>
            <g transform="matrix(117.052,0,0,117.052,478.066,2690.84)">
                <path d="M0.025,-0.236C0.025,-0.219 0.032,-0.179 0.036,-0.164C0.037,-0.157 0.041,-0.149 0.046,-0.144C0.051,-0.138 0.07,-0.116 0.077,-0.113C0.089,-0.108 0.11,-0.094 0.139,-0.087C0.157,-0.083 0.208,-0.081 0.24,-0.081C0.28,-0.081 0.311,-0.097 0.333,-0.097C0.35,-0.097 0.364,-0.106 0.374,-0.103C0.381,-0.1 0.377,-0.082 0.384,-0.082C0.396,-0.082 0.434,-0.097 0.446,-0.103C0.45,-0.104 0.454,-0.109 0.456,-0.113C0.458,-0.116 0.456,-0.12 0.456,-0.123C0.454,-0.138 0.449,-0.171 0.447,-0.186C0.446,-0.19 0.447,-0.212 0.446,-0.215C0.444,-0.22 0.438,-0.229 0.436,-0.236C0.432,-0.246 0.428,-0.263 0.425,-0.277C0.422,-0.294 0.417,-0.318 0.415,-0.338C0.412,-0.369 0.408,-0.431 0.405,-0.461C0.402,-0.482 0.398,-0.509 0.395,-0.523C0.393,-0.53 0.388,-0.537 0.384,-0.543C0.381,-0.55 0.377,-0.557 0.374,-0.564C0.371,-0.571 0.369,-0.579 0.364,-0.584C0.359,-0.59 0.35,-0.593 0.343,-0.595C0.337,-0.596 0.289,-0.604 0.262,-0.602C0.236,-0.6 0.215,-0.597 0.194,-0.59C0.184,-0.587 0.167,-0.579 0.159,-0.574C0.15,-0.569 0.131,-0.556 0.128,-0.554C0.123,-0.55 0.114,-0.538 0.107,-0.533C0.101,-0.529 0.093,-0.528 0.087,-0.523C0.08,-0.518 0.072,-0.506 0.066,-0.502C0.064,-0.501 0.058,-0.505 0.056,-0.502C0.053,-0.497 0.046,-0.482 0.046,-0.472C0.046,-0.461 0.046,-0.444 0.056,-0.441C0.08,-0.434 0.104,-0.456 0.118,-0.461C0.125,-0.464 0.131,-0.468 0.138,-0.472C0.145,-0.475 0.154,-0.479 0.159,-0.482C0.163,-0.485 0.165,-0.49 0.169,-0.492C0.174,-0.496 0.183,-0.499 0.189,-0.502C0.196,-0.506 0.203,-0.51 0.21,-0.513C0.22,-0.516 0.237,-0.521 0.251,-0.523C0.266,-0.525 0.292,-0.526 0.302,-0.523C0.309,-0.521 0.312,-0.51 0.313,-0.502C0.314,-0.485 0.321,-0.42 0.313,-0.42C0.304,-0.421 0.273,-0.43 0.255,-0.43C0.24,-0.43 0.224,-0.424 0.21,-0.42C0.196,-0.417 0.179,-0.414 0.169,-0.41C0.162,-0.408 0.156,-0.403 0.148,-0.4C0.142,-0.397 0.104,-0.368 0.097,-0.359C0.092,-0.351 0.069,-0.322 0.066,-0.318C0.061,-0.311 0.051,-0.296 0.046,-0.287C0.042,-0.281 0.038,-0.274 0.036,-0.267C0.032,-0.258 0.025,-0.247 0.025,-0.236ZM0.3,-0.182C0.284,-0.182 0.241,-0.17 0.204,-0.176C0.172,-0.182 0.154,-0.187 0.128,-0.205C0.124,-0.208 0.117,-0.22 0.117,-0.225C0.117,-0.234 0.123,-0.246 0.128,-0.256C0.132,-0.265 0.137,-0.273 0.142,-0.28C0.147,-0.286 0.154,-0.291 0.159,-0.297C0.164,-0.304 0.172,-0.313 0.179,-0.318C0.185,-0.322 0.205,-0.337 0.21,-0.338C0.222,-0.342 0.251,-0.347 0.271,-0.349C0.292,-0.35 0.329,-0.351 0.331,-0.336C0.334,-0.311 0.342,-0.241 0.343,-0.215C0.344,-0.209 0.348,-0.198 0.343,-0.195C0.338,-0.191 0.311,-0.182 0.3,-0.182Z" style="fill:#fff;fill-rule:nonzero;"/>
            </g>
            <g transform="matrix(117.052,0,0,117.052,534.477,2690.84)">
                <path d="M0.012,-0.502C0.01,-0.492 0.019,-0.459 0.022,-0.451C0.023,-0.448 0.031,-0.452 0.032,-0.451C0.034,-0.449 0.029,-0.44 0.032,-0.44C0.038,-0.44 0.037,-0.437 0.051,-0.439C0.062,-0.441 0.071,-0.439 0.09,-0.443C0.1,-0.445 0.115,-0.448 0.125,-0.45C0.133,-0.452 0.142,-0.454 0.149,-0.456C0.157,-0.459 0.167,-0.459 0.179,-0.461C0.2,-0.465 0.271,-0.478 0.271,-0.461C0.272,-0.451 0.272,-0.432 0.271,-0.417C0.271,-0.401 0.27,-0.381 0.27,-0.364C0.271,-0.347 0.273,-0.33 0.273,-0.314C0.272,-0.289 0.269,-0.245 0.268,-0.219C0.268,-0.197 0.267,-0.17 0.268,-0.154C0.268,-0.144 0.272,-0.134 0.272,-0.124C0.273,-0.112 0.27,-0.094 0.271,-0.082C0.273,-0.071 0.276,-0.058 0.282,-0.051C0.287,-0.045 0.297,-0.045 0.305,-0.044C0.314,-0.043 0.325,-0.042 0.334,-0.044C0.342,-0.046 0.351,-0.052 0.357,-0.054C0.361,-0.056 0.366,-0.056 0.37,-0.058C0.375,-0.061 0.383,-0.065 0.384,-0.072C0.387,-0.081 0.385,-0.104 0.384,-0.113C0.384,-0.117 0.376,-0.13 0.374,-0.133C0.372,-0.138 0.361,-0.18 0.361,-0.188C0.361,-0.208 0.362,-0.224 0.363,-0.264C0.363,-0.275 0.363,-0.309 0.363,-0.32C0.364,-0.341 0.363,-0.389 0.364,-0.408C0.366,-0.437 0.37,-0.437 0.374,-0.451C0.379,-0.471 0.415,-0.441 0.436,-0.441C0.468,-0.441 0.542,-0.448 0.569,-0.451C0.58,-0.453 0.589,-0.458 0.6,-0.461C0.61,-0.465 0.622,-0.468 0.63,-0.472C0.637,-0.475 0.646,-0.479 0.651,-0.482C0.655,-0.485 0.659,-0.489 0.661,-0.492C0.663,-0.495 0.664,-0.501 0.661,-0.502C0.656,-0.506 0.641,-0.509 0.63,-0.513C0.615,-0.518 0.59,-0.529 0.569,-0.533C0.543,-0.538 0.507,-0.54 0.477,-0.543C0.442,-0.547 0.384,-0.545 0.364,-0.554C0.351,-0.559 0.356,-0.581 0.354,-0.595C0.35,-0.615 0.347,-0.653 0.343,-0.677C0.34,-0.697 0.336,-0.721 0.333,-0.738C0.33,-0.752 0.326,-0.766 0.323,-0.779C0.319,-0.793 0.316,-0.81 0.313,-0.82C0.31,-0.828 0.306,-0.834 0.302,-0.841L0.282,-0.882C0.278,-0.889 0.275,-0.897 0.271,-0.902C0.269,-0.906 0.266,-0.913 0.261,-0.913C0.256,-0.913 0.241,-0.91 0.241,-0.902C0.24,-0.894 0.241,-0.864 0.243,-0.847C0.246,-0.827 0.25,-0.818 0.252,-0.795C0.254,-0.763 0.25,-0.731 0.251,-0.718C0.251,-0.713 0.262,-0.712 0.261,-0.708C0.261,-0.697 0.258,-0.684 0.255,-0.662C0.253,-0.652 0.251,-0.636 0.25,-0.626C0.249,-0.614 0.249,-0.601 0.249,-0.59C0.25,-0.576 0.25,-0.564 0.25,-0.557C0.249,-0.544 0.184,-0.547 0.169,-0.543C0.161,-0.542 0.12,-0.538 0.094,-0.532C0.087,-0.531 0.068,-0.517 0.063,-0.512C0.06,-0.509 0.058,-0.502 0.053,-0.502C0.048,-0.502 0.039,-0.512 0.032,-0.512C0.025,-0.512 0.013,-0.51 0.012,-0.502Z" style="fill:#fff;fill-rule:nonzero;"/>
            </g>
        </g>
        <g transform="matrix(0.647526,-0.093183,0.093183,0.647526,-251.653,-1434.06)">
            <g transform="matrix(117.052,0,0,117.052,316.033,2690.84)">
                <path d="M0.025,0.338C0.021,0.353 0.018,0.392 0.022,0.404C0.026,0.417 0.043,0.434 0.049,0.438C0.058,0.443 0.073,0.45 0.087,0.451C0.114,0.453 0.183,0.453 0.21,0.451C0.224,0.45 0.239,0.444 0.251,0.441C0.261,0.438 0.273,0.434 0.282,0.431C0.289,0.428 0.316,0.414 0.323,0.41C0.33,0.407 0.35,0.393 0.354,0.39C0.36,0.385 0.377,0.374 0.384,0.369C0.388,0.366 0.418,0.344 0.425,0.338C0.429,0.335 0.432,0.332 0.436,0.328L0.466,0.297C0.471,0.292 0.483,0.282 0.487,0.277C0.489,0.274 0.504,0.251 0.507,0.246C0.509,0.243 0.515,0.228 0.517,0.225C0.52,0.22 0.527,0.208 0.528,0.205C0.53,0.2 0.535,0.191 0.538,0.185C0.542,0.178 0.546,0.171 0.548,0.164C0.552,0.156 0.566,0.12 0.569,0.113C0.572,0.104 0.576,0.092 0.579,0.082C0.583,0.072 0.586,0.062 0.589,0.051C0.593,0.041 0.597,0.031 0.6,0.021C0.603,0.007 0.618,-0.065 0.62,-0.082C0.624,-0.106 0.629,-0.147 0.63,-0.174C0.632,-0.198 0.63,-0.222 0.63,-0.246L0.63,-0.42C0.63,-0.431 0.632,-0.443 0.63,-0.451C0.629,-0.459 0.624,-0.467 0.62,-0.472C0.617,-0.476 0.615,-0.481 0.61,-0.482C0.6,-0.484 0.571,-0.48 0.559,-0.482C0.551,-0.483 0.545,-0.489 0.538,-0.492C0.531,-0.496 0.525,-0.501 0.518,-0.502C0.504,-0.506 0.477,-0.511 0.456,-0.513C0.434,-0.514 0.405,-0.514 0.384,-0.513C0.367,-0.511 0.348,-0.506 0.333,-0.502C0.319,-0.499 0.302,-0.496 0.292,-0.492C0.285,-0.49 0.25,-0.473 0.23,-0.455C0.212,-0.44 0.203,-0.43 0.198,-0.423C0.195,-0.419 0.183,-0.403 0.179,-0.4C0.174,-0.395 0.152,-0.357 0.148,-0.349C0.146,-0.342 0.14,-0.335 0.138,-0.328C0.135,-0.316 0.13,-0.292 0.128,-0.277C0.126,-0.263 0.126,-0.249 0.128,-0.236C0.13,-0.22 0.135,-0.197 0.138,-0.185C0.14,-0.177 0.145,-0.171 0.148,-0.164C0.152,-0.157 0.154,-0.149 0.159,-0.144C0.164,-0.138 0.184,-0.118 0.189,-0.113C0.195,-0.108 0.219,-0.091 0.224,-0.088C0.229,-0.084 0.234,-0.084 0.241,-0.082C0.248,-0.08 0.254,-0.075 0.261,-0.072C0.268,-0.068 0.275,-0.065 0.282,-0.062C0.289,-0.058 0.295,-0.053 0.302,-0.051C0.314,-0.048 0.336,-0.042 0.354,-0.041C0.376,-0.039 0.417,-0.039 0.436,-0.041C0.446,-0.042 0.458,-0.048 0.466,-0.051C0.473,-0.054 0.48,-0.058 0.487,-0.062C0.494,-0.065 0.502,-0.07 0.507,-0.072C0.511,-0.073 0.518,-0.075 0.518,-0.072C0.518,-0.062 0.512,-0.029 0.507,-0.01C0.502,0.008 0.492,0.027 0.487,0.041C0.483,0.051 0.48,0.063 0.477,0.072C0.474,0.079 0.469,0.085 0.466,0.092C0.463,0.101 0.459,0.115 0.456,0.123C0.453,0.13 0.449,0.138 0.446,0.144C0.443,0.148 0.438,0.15 0.436,0.154C0.43,0.162 0.42,0.186 0.415,0.195C0.413,0.199 0.408,0.202 0.405,0.205C0.4,0.21 0.389,0.22 0.384,0.226C0.381,0.229 0.377,0.232 0.374,0.236C0.371,0.241 0.349,0.262 0.343,0.267C0.336,0.272 0.33,0.282 0.323,0.287C0.317,0.292 0.29,0.313 0.282,0.318C0.273,0.323 0.26,0.325 0.251,0.328C0.244,0.331 0.238,0.336 0.23,0.338C0.22,0.342 0.203,0.347 0.189,0.349C0.171,0.35 0.131,0.35 0.118,0.349C0.113,0.348 0.108,0.343 0.107,0.338C0.107,0.33 0.116,0.303 0.118,0.285C0.12,0.269 0.114,0.262 0.107,0.256C0.099,0.249 0.083,0.263 0.077,0.267C0.072,0.269 0.07,0.273 0.066,0.277C0.063,0.28 0.058,0.284 0.056,0.287C0.055,0.29 0.058,0.295 0.056,0.297C0.053,0.302 0.041,0.311 0.036,0.318C0.031,0.324 0.028,0.331 0.025,0.338ZM0.425,-0.133C0.41,-0.132 0.371,-0.132 0.354,-0.133C0.343,-0.134 0.331,-0.14 0.323,-0.144C0.316,-0.146 0.309,-0.15 0.302,-0.154C0.295,-0.157 0.289,-0.161 0.282,-0.164C0.275,-0.167 0.266,-0.169 0.261,-0.174C0.256,-0.179 0.25,-0.186 0.245,-0.191C0.24,-0.196 0.235,-0.199 0.23,-0.205C0.225,-0.212 0.222,-0.225 0.22,-0.236C0.219,-0.25 0.219,-0.272 0.22,-0.287C0.222,-0.301 0.225,-0.318 0.23,-0.328C0.235,-0.337 0.257,-0.363 0.261,-0.369C0.266,-0.376 0.277,-0.385 0.282,-0.39C0.285,-0.393 0.288,-0.397 0.292,-0.4C0.297,-0.403 0.306,-0.407 0.313,-0.41C0.319,-0.414 0.326,-0.417 0.333,-0.42C0.34,-0.424 0.346,-0.428 0.354,-0.431C0.364,-0.434 0.38,-0.44 0.395,-0.441C0.418,-0.443 0.473,-0.443 0.497,-0.441C0.511,-0.44 0.53,-0.434 0.538,-0.431C0.543,-0.429 0.548,-0.425 0.548,-0.42C0.548,-0.408 0.542,-0.379 0.538,-0.359C0.533,-0.335 0.523,-0.296 0.518,-0.277C0.515,-0.266 0.511,-0.256 0.507,-0.246C0.504,-0.236 0.5,-0.224 0.497,-0.215C0.494,-0.208 0.49,-0.202 0.487,-0.195C0.483,-0.188 0.48,-0.179 0.477,-0.174C0.474,-0.17 0.47,-0.167 0.466,-0.164C0.461,-0.159 0.453,-0.149 0.446,-0.144C0.44,-0.139 0.433,-0.134 0.425,-0.133Z" style="fill:#fff;fill-rule:nonzero;"/>
            </g>
            <g transform="matrix(117.052,0,0,117.052,392.848,2690.84)">
                <path d="M0.025,-0.461C0.025,-0.434 0.032,-0.354 0.036,-0.308C0.039,-0.267 0.042,-0.22 0.046,-0.185C0.049,-0.154 0.053,-0.115 0.056,-0.092C0.058,-0.078 0.06,-0.06 0.066,-0.051C0.073,-0.043 0.087,-0.043 0.097,-0.041C0.107,-0.039 0.119,-0.039 0.128,-0.041C0.135,-0.043 0.143,-0.046 0.148,-0.051C0.154,-0.056 0.157,-0.065 0.159,-0.072C0.16,-0.078 0.16,-0.086 0.159,-0.092C0.157,-0.101 0.15,-0.112 0.148,-0.123C0.147,-0.135 0.147,-0.15 0.148,-0.164C0.15,-0.178 0.155,-0.193 0.159,-0.205C0.162,-0.215 0.166,-0.226 0.169,-0.236C0.172,-0.246 0.176,-0.258 0.179,-0.267C0.182,-0.274 0.185,-0.281 0.189,-0.287C0.195,-0.294 0.205,-0.302 0.21,-0.308L0.241,-0.338C0.244,-0.342 0.247,-0.346 0.251,-0.349C0.256,-0.352 0.265,-0.355 0.271,-0.359C0.278,-0.362 0.285,-0.367 0.292,-0.369C0.302,-0.373 0.319,-0.379 0.333,-0.379C0.364,-0.381 0.447,-0.367 0.474,-0.367C0.481,-0.367 0.496,-0.367 0.497,-0.379C0.497,-0.383 0.498,-0.386 0.497,-0.39C0.495,-0.395 0.492,-0.405 0.487,-0.41C0.482,-0.415 0.472,-0.416 0.466,-0.42C0.459,-0.426 0.453,-0.436 0.446,-0.441C0.44,-0.446 0.432,-0.448 0.425,-0.451C0.418,-0.455 0.412,-0.458 0.405,-0.461C0.398,-0.465 0.392,-0.471 0.384,-0.472C0.365,-0.473 0.314,-0.473 0.292,-0.472C0.278,-0.471 0.261,-0.465 0.251,-0.461C0.244,-0.459 0.237,-0.455 0.23,-0.451C0.224,-0.448 0.217,-0.444 0.21,-0.441C0.203,-0.438 0.196,-0.435 0.189,-0.431C0.183,-0.426 0.155,-0.404 0.148,-0.4C0.142,-0.395 0.133,-0.386 0.128,-0.379C0.123,-0.373 0.121,-0.354 0.118,-0.359C0.114,-0.364 0.111,-0.396 0.107,-0.41C0.105,-0.421 0.101,-0.432 0.097,-0.441C0.094,-0.448 0.092,-0.456 0.087,-0.461C0.082,-0.467 0.074,-0.47 0.066,-0.472C0.058,-0.473 0.042,-0.473 0.036,-0.472C0.031,-0.471 0.025,-0.466 0.025,-0.461Z" style="fill:#fff;fill-rule:nonzero;"/>
            </g>
            <g transform="matrix(117.052,0,0,117.052,454.061,2690.84)">
                <path d="M0.025,-0.318C0.025,-0.291 0.032,-0.219 0.036,-0.195C0.037,-0.187 0.042,-0.181 0.046,-0.174C0.049,-0.167 0.051,-0.159 0.056,-0.154C0.061,-0.149 0.073,-0.128 0.077,-0.123C0.08,-0.118 0.13,-0.085 0.138,-0.082C0.145,-0.079 0.152,-0.075 0.159,-0.072C0.166,-0.068 0.172,-0.065 0.179,-0.062C0.186,-0.058 0.192,-0.054 0.2,-0.051C0.21,-0.048 0.227,-0.044 0.241,-0.041C0.258,-0.038 0.282,-0.032 0.302,-0.031C0.326,-0.029 0.36,-0.029 0.384,-0.031C0.405,-0.032 0.432,-0.038 0.446,-0.041C0.453,-0.043 0.459,-0.048 0.466,-0.051C0.473,-0.055 0.48,-0.058 0.487,-0.062C0.494,-0.065 0.502,-0.068 0.507,-0.072C0.511,-0.074 0.542,-0.095 0.548,-0.103C0.572,-0.134 0.587,-0.174 0.588,-0.2C0.591,-0.258 0.582,-0.288 0.579,-0.308C0.578,-0.318 0.572,-0.33 0.569,-0.338C0.566,-0.345 0.562,-0.352 0.559,-0.359C0.555,-0.366 0.552,-0.373 0.548,-0.379C0.545,-0.386 0.543,-0.394 0.538,-0.4C0.533,-0.407 0.512,-0.436 0.507,-0.441C0.502,-0.446 0.473,-0.467 0.466,-0.472C0.46,-0.476 0.453,-0.479 0.446,-0.482C0.437,-0.485 0.426,-0.491 0.415,-0.492C0.393,-0.496 0.347,-0.501 0.313,-0.502C0.277,-0.504 0.225,-0.503 0.203,-0.499C0.181,-0.495 0.167,-0.491 0.148,-0.482C0.141,-0.479 0.134,-0.476 0.128,-0.472C0.121,-0.467 0.113,-0.456 0.107,-0.451L0.077,-0.42C0.073,-0.417 0.069,-0.414 0.066,-0.41C0.061,-0.403 0.051,-0.388 0.046,-0.379C0.042,-0.373 0.038,-0.366 0.036,-0.359C0.032,-0.349 0.025,-0.332 0.025,-0.318ZM0.189,-0.39C0.189,-0.385 0.195,-0.371 0.2,-0.369C0.205,-0.367 0.213,-0.376 0.22,-0.379C0.227,-0.383 0.234,-0.387 0.241,-0.39C0.249,-0.393 0.261,-0.399 0.271,-0.4C0.297,-0.402 0.371,-0.402 0.395,-0.4C0.402,-0.399 0.41,-0.395 0.415,-0.39C0.42,-0.385 0.42,-0.374 0.425,-0.369C0.43,-0.364 0.441,-0.364 0.446,-0.359C0.451,-0.354 0.474,-0.335 0.477,-0.328C0.482,-0.316 0.483,-0.279 0.487,-0.267C0.488,-0.262 0.49,-0.244 0.489,-0.239C0.487,-0.226 0.482,-0.2 0.477,-0.185C0.474,-0.177 0.471,-0.169 0.466,-0.164C0.461,-0.159 0.452,-0.158 0.446,-0.154C0.439,-0.149 0.434,-0.137 0.425,-0.133C0.417,-0.13 0.405,-0.133 0.395,-0.133C0.371,-0.133 0.307,-0.132 0.282,-0.133C0.268,-0.134 0.251,-0.14 0.241,-0.144C0.233,-0.146 0.227,-0.15 0.22,-0.154L0.179,-0.174C0.172,-0.178 0.153,-0.199 0.148,-0.205C0.143,-0.212 0.133,-0.219 0.128,-0.226C0.123,-0.232 0.119,-0.239 0.118,-0.246C0.116,-0.26 0.116,-0.292 0.118,-0.308C0.119,-0.318 0.125,-0.33 0.128,-0.338C0.131,-0.345 0.135,-0.352 0.138,-0.359C0.142,-0.366 0.144,-0.373 0.148,-0.379C0.154,-0.386 0.164,-0.395 0.169,-0.4C0.172,-0.403 0.174,-0.41 0.179,-0.41C0.184,-0.41 0.198,-0.403 0.2,-0.4C0.201,-0.396 0.189,-0.394 0.189,-0.39Z" style="fill:#fff;fill-rule:nonzero;"/>
            </g>
            <g transform="matrix(117.052,0,0,117.052,524.875,2690.84)">
                <path d="M0.025,-0.441C0.025,-0.431 0.034,-0.421 0.036,-0.41C0.039,-0.385 0.042,-0.323 0.046,-0.287C0.049,-0.256 0.053,-0.226 0.056,-0.195C0.06,-0.164 0.063,-0.123 0.066,-0.103C0.068,-0.092 0.073,-0.08 0.077,-0.072C0.079,-0.065 0.083,-0.058 0.087,-0.051C0.09,-0.044 0.094,-0.038 0.097,-0.031C0.101,-0.024 0.102,-0.015 0.107,-0.01C0.113,-0.005 0.121,-0.003 0.128,-0C0.135,0.003 0.142,0.007 0.148,0.01C0.155,0.014 0.161,0.019 0.169,0.021C0.181,0.022 0.208,0.022 0.22,0.021C0.228,0.019 0.256,0.003 0.261,-0C0.265,-0.003 0.295,-0.026 0.302,-0.031C0.306,-0.034 0.309,-0.038 0.313,-0.041C0.318,-0.046 0.328,-0.056 0.333,-0.062C0.336,-0.065 0.341,-0.068 0.343,-0.072C0.347,-0.077 0.349,-0.086 0.354,-0.092C0.359,-0.099 0.373,-0.12 0.374,-0.123C0.376,-0.128 0.381,-0.137 0.384,-0.144C0.388,-0.15 0.391,-0.157 0.395,-0.164C0.398,-0.171 0.4,-0.183 0.405,-0.185C0.41,-0.186 0.422,-0.181 0.425,-0.174C0.43,-0.162 0.432,-0.126 0.436,-0.113C0.437,-0.105 0.451,-0.077 0.456,-0.072C0.461,-0.067 0.483,-0.046 0.487,-0.041C0.489,-0.037 0.53,-0.014 0.554,-0.018C0.581,-0.023 0.612,-0.037 0.62,-0.041C0.627,-0.045 0.63,-0.046 0.641,-0.051C0.647,-0.055 0.656,-0.058 0.661,-0.062C0.665,-0.064 0.668,-0.068 0.671,-0.072C0.677,-0.077 0.687,-0.087 0.692,-0.092C0.695,-0.096 0.699,-0.099 0.702,-0.103C0.706,-0.108 0.708,-0.117 0.712,-0.123C0.718,-0.13 0.728,-0.135 0.733,-0.144C0.738,-0.152 0.761,-0.218 0.764,-0.226C0.767,-0.234 0.771,-0.246 0.774,-0.256C0.777,-0.267 0.781,-0.277 0.784,-0.287C0.788,-0.299 0.791,-0.314 0.794,-0.328C0.798,-0.344 0.803,-0.364 0.805,-0.379C0.806,-0.393 0.812,-0.41 0.81,-0.424C0.809,-0.439 0.811,-0.466 0.794,-0.472C0.788,-0.474 0.781,-0.473 0.774,-0.472C0.765,-0.47 0.752,-0.467 0.743,-0.461C0.735,-0.456 0.728,-0.446 0.723,-0.441C0.719,-0.438 0.714,-0.435 0.712,-0.431C0.709,-0.422 0.706,-0.403 0.702,-0.39C0.699,-0.376 0.695,-0.361 0.692,-0.349C0.689,-0.338 0.685,-0.328 0.682,-0.318C0.678,-0.306 0.675,-0.287 0.671,-0.277C0.669,-0.27 0.664,-0.263 0.661,-0.256C0.658,-0.248 0.644,-0.212 0.641,-0.205C0.637,-0.198 0.634,-0.19 0.63,-0.185C0.628,-0.181 0.624,-0.178 0.62,-0.174C0.615,-0.169 0.605,-0.159 0.6,-0.154C0.596,-0.15 0.593,-0.146 0.589,-0.144C0.584,-0.14 0.576,-0.135 0.569,-0.133C0.562,-0.132 0.554,-0.129 0.548,-0.133C0.542,-0.138 0.531,-0.156 0.528,-0.164C0.525,-0.17 0.529,-0.178 0.528,-0.185C0.524,-0.198 0.511,-0.234 0.507,-0.246C0.506,-0.249 0.508,-0.253 0.507,-0.256C0.506,-0.267 0.5,-0.29 0.497,-0.308C0.494,-0.326 0.49,-0.349 0.487,-0.369C0.483,-0.391 0.48,-0.417 0.477,-0.441C0.473,-0.465 0.47,-0.497 0.466,-0.513C0.465,-0.52 0.463,-0.53 0.456,-0.533C0.448,-0.537 0.425,-0.535 0.415,-0.533C0.408,-0.532 0.4,-0.528 0.395,-0.523C0.389,-0.518 0.387,-0.51 0.384,-0.502C0.381,-0.494 0.376,-0.48 0.374,-0.472C0.373,-0.465 0.374,-0.456 0.374,-0.451L0.374,-0.441C0.374,-0.438 0.375,-0.434 0.374,-0.431C0.371,-0.415 0.357,-0.364 0.354,-0.349C0.353,-0.345 0.338,-0.301 0.333,-0.287C0.329,-0.277 0.326,-0.267 0.323,-0.256C0.319,-0.246 0.316,-0.234 0.313,-0.226C0.31,-0.218 0.306,-0.212 0.302,-0.205C0.299,-0.198 0.295,-0.191 0.292,-0.185C0.289,-0.178 0.285,-0.169 0.282,-0.164C0.279,-0.16 0.274,-0.158 0.271,-0.154C0.266,-0.147 0.256,-0.13 0.251,-0.123C0.248,-0.119 0.244,-0.116 0.241,-0.113C0.236,-0.108 0.227,-0.097 0.22,-0.092C0.214,-0.088 0.205,-0.084 0.2,-0.082C0.196,-0.081 0.192,-0.08 0.189,-0.082C0.184,-0.087 0.174,-0.103 0.169,-0.113C0.164,-0.122 0.161,-0.133 0.159,-0.144C0.155,-0.157 0.152,-0.178 0.148,-0.195C0.145,-0.212 0.141,-0.229 0.138,-0.246C0.135,-0.267 0.131,-0.297 0.128,-0.318C0.125,-0.335 0.121,-0.352 0.118,-0.369C0.114,-0.386 0.111,-0.407 0.107,-0.42C0.105,-0.431 0.101,-0.441 0.097,-0.451C0.094,-0.461 0.09,-0.475 0.087,-0.482C0.085,-0.486 0.081,-0.491 0.077,-0.492C0.072,-0.494 0.062,-0.495 0.056,-0.492C0.049,-0.489 0.041,-0.48 0.036,-0.472C0.031,-0.463 0.025,-0.451 0.025,-0.441Z" style="fill:#fff;fill-rule:nonzero;"/>
            </g>
            <g transform="matrix(117.052,0,0,117.052,622.095,2690.84)">
                <path d="M0.025,-0.349C0.025,-0.337 0.031,-0.316 0.036,-0.308C0.04,-0.301 0.051,-0.302 0.056,-0.297C0.061,-0.292 0.06,-0.281 0.066,-0.277C0.074,-0.272 0.088,-0.271 0.099,-0.269C0.111,-0.267 0.171,-0.264 0.184,-0.264C0.218,-0.261 0.258,-0.26 0.302,-0.256C0.336,-0.254 0.379,-0.25 0.405,-0.246C0.422,-0.244 0.444,-0.239 0.456,-0.236C0.463,-0.234 0.475,-0.232 0.477,-0.226C0.478,-0.219 0.47,-0.202 0.466,-0.195C0.464,-0.191 0.459,-0.188 0.456,-0.185L0.425,-0.154C0.42,-0.149 0.412,-0.138 0.405,-0.133C0.399,-0.129 0.391,-0.126 0.384,-0.123L0.343,-0.103C0.336,-0.099 0.33,-0.095 0.323,-0.092C0.314,-0.089 0.303,-0.083 0.292,-0.082C0.273,-0.08 0.227,-0.08 0.21,-0.082C0.202,-0.083 0.193,-0.089 0.189,-0.092C0.187,-0.095 0.188,-0.099 0.189,-0.103C0.191,-0.108 0.201,-0.116 0.2,-0.123C0.198,-0.13 0.189,-0.142 0.179,-0.144C0.169,-0.145 0.148,-0.137 0.138,-0.133C0.131,-0.131 0.123,-0.128 0.118,-0.123C0.113,-0.118 0.108,-0.11 0.107,-0.103C0.106,-0.089 0.106,-0.055 0.107,-0.041C0.108,-0.033 0.113,-0.026 0.118,-0.021C0.123,-0.015 0.133,-0.015 0.138,-0.01C0.143,-0.005 0.157,0.008 0.162,0.012C0.167,0.015 0.189,0.02 0.2,0.021C0.22,0.022 0.27,0.022 0.292,0.021C0.306,0.019 0.321,0.014 0.333,0.01C0.343,0.007 0.355,0.003 0.364,-0C0.371,-0.003 0.377,-0.007 0.384,-0.01C0.391,-0.014 0.398,-0.017 0.405,-0.021C0.412,-0.024 0.42,-0.027 0.425,-0.031C0.429,-0.033 0.432,-0.038 0.436,-0.041C0.442,-0.046 0.459,-0.056 0.466,-0.062C0.47,-0.064 0.5,-0.085 0.507,-0.092C0.513,-0.098 0.533,-0.126 0.538,-0.133C0.543,-0.139 0.552,-0.147 0.556,-0.153C0.561,-0.16 0.565,-0.167 0.569,-0.174C0.572,-0.18 0.569,-0.188 0.569,-0.195C0.569,-0.203 0.571,-0.215 0.569,-0.226C0.567,-0.236 0.562,-0.248 0.559,-0.256C0.556,-0.263 0.552,-0.27 0.548,-0.277C0.545,-0.284 0.543,-0.292 0.538,-0.297C0.533,-0.302 0.524,-0.304 0.518,-0.308C0.511,-0.311 0.504,-0.315 0.497,-0.318C0.489,-0.321 0.477,-0.326 0.466,-0.328C0.453,-0.332 0.432,-0.336 0.415,-0.338C0.386,-0.342 0.331,-0.345 0.292,-0.349C0.254,-0.352 0.188,-0.35 0.179,-0.359C0.171,-0.366 0.198,-0.368 0.208,-0.371C0.218,-0.375 0.23,-0.376 0.241,-0.379C0.253,-0.383 0.268,-0.386 0.282,-0.39C0.295,-0.393 0.309,-0.397 0.323,-0.4C0.338,-0.403 0.357,-0.407 0.374,-0.41C0.391,-0.414 0.408,-0.418 0.425,-0.42C0.448,-0.424 0.48,-0.428 0.507,-0.431C0.538,-0.434 0.594,-0.436 0.61,-0.441C0.617,-0.443 0.606,-0.457 0.6,-0.461C0.589,-0.468 0.567,-0.48 0.548,-0.482C0.509,-0.485 0.408,-0.484 0.364,-0.482C0.336,-0.481 0.304,-0.475 0.282,-0.472C0.265,-0.469 0.246,-0.465 0.23,-0.461C0.217,-0.458 0.203,-0.455 0.189,-0.451C0.176,-0.448 0.159,-0.444 0.148,-0.441C0.141,-0.439 0.135,-0.434 0.128,-0.431C0.119,-0.427 0.106,-0.424 0.097,-0.42C0.09,-0.418 0.083,-0.415 0.077,-0.41C0.07,-0.405 0.063,-0.395 0.056,-0.39C0.05,-0.385 0.04,-0.386 0.036,-0.379C0.031,-0.373 0.025,-0.359 0.025,-0.349Z" style="fill:#fff;fill-rule:nonzero;"/>
            </g>
        </g>
    </g>
</svg>
